{
    "asset" : {
        "generator" : "Khronos glTF Blender I/O v1.4.40",
        "version" : "2.0"
    },
    "scene" : 0,
    "scenes" : [
        {
            "name" : "Scene",
            "nodes" : [
                5
            ]
        }
    ],
    "nodes" : [
        {
            "mesh" : 0,
            "name" : "Untitled_53_DiamondHull_geo_c8313697256347fc832e290f4c04b901_Di"
        },
        {
            "children" : [
                0
            ],
            "name" : "Untitled_53_DiamondHull_geo"
        },
        {
            "children" : [
                1
            ],
            "name" : "RootNode"
        },
        {
            "children" : [
                2
            ],
            "name" : "Untitled_53.fbx",
            "rotation" : [
                0.7071068286895752,
                0,
                0,
                0.7071068286895752
            ]
        },
        {
            "children" : [
                3
            ],
            "name" : "RootNode (model correction matrix)"
        },
        {
            "children" : [
                4
            ],
            "name" : "RootNode (gltf orientation matrix)",
            "rotation" : [
                -0.7071068286895752,
                0,
                0,
                0.7071068286895752
            ]
        }
    ],
    "materials" : [
        {
            "alphaMode" : "BLEND",
            "doubleSided" : true,
            "name" : "c8313697256347fc832e290f4c04b901_DiamondHull",
            "pbrMetallicRoughness" : {
                "baseColorFactor" : [
                    1,
                    1,
                    1,
                    0.7883002758026123
                ],
                "baseColorTexture" : {
                    "index" : 0,
                    "texCoord" : 0
                },
                "roughnessFactor" : 0.44073933362960815
            }
        }
    ],
    "meshes" : [
        {
            "name" : "Untitled_53_DiamondHull_geo_c8313697256347fc832e290f4c04b901_Di",
            "primitives" : [
                {
                    "attributes" : {
                        "POSITION" : 0,
                        "NORMAL" : 1,
                        "TEXCOORD_0" : 2,
                        "COLOR_0" : 3
                    },
                    "indices" : 4,
                    "material" : 0
                }
            ]
        }
    ],
    "textures" : [
        {
            "sampler" : 0,
            "source" : 0
        }
    ],
    "images" : [
        {
            "bufferView" : 5,
            "mimeType" : "image/png",
            "name" : "c8313697256347fc832e290f4c04b901_DiamondHull_baseColor"
        }
    ],
    "accessors" : [
        {
            "bufferView" : 0,
            "componentType" : 5126,
            "count" : 24378,
            "max" : [
                4.533702850341797,
                7.0194549560546875,
                7.4661173820495605
            ],
            "min" : [
                -5.735143184661865,
                -9.309905052185059,
                -7.911889553070068
            ],
            "type" : "VEC3"
        },
        {
            "bufferView" : 1,
            "componentType" : 5126,
            "count" : 24378,
            "type" : "VEC3"
        },
        {
            "bufferView" : 2,
            "componentType" : 5126,
            "count" : 24378,
            "type" : "VEC2"
        },
        {
            "bufferView" : 3,
            "componentType" : 5123,
            "count" : 24378,
            "normalized" : true,
            "type" : "VEC4"
        },
        {
            "bufferView" : 4,
            "componentType" : 5123,
            "count" : 24378,
            "type" : "SCALAR"
        }
    ],
    "bufferViews" : [
        {
            "buffer" : 0,
            "byteLength" : 292536,
            "byteOffset" : 0
        },
        {
            "buffer" : 0,
            "byteLength" : 292536,
            "byteOffset" : 292536
        },
        {
            "buffer" : 0,
            "byteLength" : 195024,
            "byteOffset" : 585072
        },
        {
            "buffer" : 0,
            "byteLength" : 195024,
            "byteOffset" : 780096
        },
        {
            "buffer" : 0,
            "byteLength" : 48756,
            "byteOffset" : 975120
        },
        {
            "buffer" : 0,
            "byteLength" : 49177,
            "byteOffset" : 1023876
        }
    ],
    "samplers" : [
        {
            "magFilter" : 9729,
            "minFilter" : 9986
        }
    ],
    "buffers" : [
        {
            "byteLength" : 1073056,
            "uri" : "data:application/octet-stream;base64,"
        }
    ]
}
